<svg height="512pt" viewBox="0 0 512 512" width="512pt" xmlns="http://www.w3.org/2000/svg"><path d="m336.332031 0h-224.933593c-3.976563 0-7.792969 1.582031-10.605469 4.394531l-96.398438 96.398438c-2.8125 2.8125-4.394531 6.628906-4.394531 10.605469v353.46875c0 25.988281 21.144531 47.132812 47.132812 47.132812h289.199219c12.597657 0 24.4375-4.90625 33.328125-13.808594 8.902344-8.898437 13.804688-20.734375 13.804688-33.324218v-417.734376c0-12.589843-4.902344-24.425781-13.796875-33.320312-8.898438-8.90625-20.738281-13.8125-33.335938-13.8125zm-223.863281 35.144531v60.1875c0 9.449219-7.6875 17.132813-17.132812 17.132813h-60.191407zm241 429.722657c0 4.574218-1.785156 8.875-5.027344 12.117187-3.230468 3.234375-7.53125 5.015625-12.105468 5.015625h-289.203126c-9.445312 0-17.132812-7.6875-17.132812-17.132812v-322.398438h65.332031c25.988281 0 47.132813-21.144531 47.132813-47.132812v-65.335938h193.867187c4.578125 0 8.878907 1.78125 12.117188 5.023438 3.234375 3.234374 5.015625 7.535156 5.015625 12.109374v417.734376zm0 0"/><path d="m288.132812 192.800781h-192.800781c-8.28125 0-15 6.714844-15 15 0 8.285157 6.71875 15 15 15h192.800781c8.285157 0 15-6.714843 15-15 0-8.285156-6.714843-15-15-15zm0 0"/><path d="m288.132812 257.066406h-192.800781c-8.28125 0-15 6.714844-15 15s6.71875 15 15 15h192.800781c8.285157 0 15-6.714844 15-15s-6.714843-15-15-15zm0 0"/><path d="m288.132812 321.332031h-192.800781c-8.28125 0-15 6.71875-15 15 0 8.285157 6.71875 15 15 15h192.800781c8.285157 0 15-6.714843 15-15 0-8.28125-6.714843-15-15-15zm0 0"/><path d="m191.734375 385.601562h-96.402344c-8.28125 0-15 6.714844-15 15 0 8.28125 6.71875 15 15 15h96.402344c8.28125 0 15-6.71875 15-15 0-8.285156-6.714844-15-15-15zm0 0"/><path d="m464.867188 0c-25.988282 0-47.132813 21.144531-47.132813 47.132812v313.75c0 49.324219 11.660156 98.710938 33.71875 142.824219 2.539063 5.082031 7.734375 8.292969 13.414063 8.292969 5.683593 0 10.875-3.210938 13.417968-8.292969 22.054688-44.113281 33.714844-93.503906 33.714844-142.824219v-313.75c0-25.988281-21.144531-47.132812-47.132812-47.132812zm0 30c9.445312 0 17.132812 7.6875 17.132812 17.132812v33.199219h-34.265625v-33.199219c0-9.445312 7.683594-17.132812 17.132813-17.132812zm17.132812 323.46875h-34.265625v-243.136719h34.265625zm-17.132812 105.4375c-8.71875-24.277344-14.1875-49.734375-16.222657-75.4375h32.445313c-2.035156 25.707031-7.507813 51.160156-16.222656 75.4375zm0 0"/></svg>