<?xml version="1.0" encoding="iso-8859-1"?>
<!-- Generator: Adobe Illustrator 19.0.0, SVG Export Plug-In . SVG Version: 6.00 Build 0)  -->
<svg version="1.1" id="Layer_1" xmlns="http://www.w3.org/2000/svg" xmlns:xlink="http://www.w3.org/1999/xlink" x="0px" y="0px"
	 viewBox="0 0 509.287 509.287" style="enable-background:new 0 0 509.287 509.287;" xml:space="preserve">
<circle style="fill:#FFB74A;" cx="254.644" cy="254.644" r="254.644"/>
<circle style="fill:#F8FA95;" cx="254.644" cy="254.644" r="234.299"/>
<g>
	<path style="fill:#FFB03A;" d="M285.499,226.501l138.342-79.682c7.46-4.408,9.494-14.241,4.408-21.362
		c-34.585-46.453-87.481-78.326-148.175-85.446c-8.477-1.017-16.276,5.764-16.276,14.58v159.703
		C263.46,225.144,275.666,232.265,285.499,226.501z"/>
	<path style="fill:#FFB03A;" d="M294.315,267.189l138.342,79.682c7.46,4.408,17.293,1.017,20.683-6.781
		c11.189-26.109,17.632-55.269,17.632-85.446c0-30.517-6.442-59.338-17.632-85.446c-3.391-7.799-13.224-11.189-20.683-6.781
		l-138.342,79.682C284.482,247.523,284.482,261.764,294.315,267.189z"/>
	<path style="fill:#FFB03A;" d="M245.828,213.955V54.591c0-8.816-7.46-15.597-16.276-14.58
		c-60.355,7.121-113.25,38.993-148.175,85.446c-5.086,7.121-3.391,16.954,4.408,21.362l138.342,79.682
		C233.621,232.265,245.828,225.144,245.828,213.955z"/>
	<path style="fill:#FFB03A;" d="M263.46,295.332v159.703c0,8.816,7.46,15.597,16.276,14.58
		c60.355-7.121,113.25-38.993,148.175-85.446c5.086-7.121,3.391-16.954-4.408-21.362l-138.003-80.021
		C275.666,277.022,263.46,284.143,263.46,295.332z"/>
	<path style="fill:#FFB03A;" d="M223.788,282.787L85.446,362.469c-7.46,4.408-9.494,14.241-4.408,21.362
		c34.585,46.453,87.481,78.326,148.175,85.446c8.477,1.017,16.276-5.764,16.276-14.58V295.332
		C245.828,284.143,233.621,277.022,223.788,282.787z"/>
	<path style="fill:#FFB03A;" d="M214.972,242.098L76.63,162.416c-7.46-4.408-17.293-1.017-20.683,6.781
		c-11.189,26.109-17.632,55.269-17.632,85.446c0,30.517,6.442,59.338,17.632,85.446c3.391,7.799,13.224,11.189,20.683,6.781
		l138.342-79.682C224.805,261.764,224.805,247.523,214.972,242.098z"/>
</g>
<g>
	<path style="fill:#F4971C;" d="M321.441,431.979c0,0,4.408-18.988-9.155-33.907c-13.902-14.919-12.885-25.77-12.885-25.77
		s-6.781,9.494,3.73,28.482C308.217,409.939,324.154,423.163,321.441,431.979z"/>
	<path style="fill:#F4971C;" d="M401.801,399.767c0,0-3.391-19.327-22.04-27.126c-18.649-8.138-22.04-18.649-22.04-18.649
		s-2.374,11.528,14.58,24.413C380.779,384.848,400.445,390.612,401.801,399.767z"/>
	<path style="fill:#F4971C;" d="M309.573,380.101c0,0,3.391-19.327-11.528-33.229c-14.58-13.902-14.241-25.091-14.241-25.091
		s-6.103,9.833,5.425,28.143C294.993,359.078,311.608,370.946,309.573,380.101z"/>
	<path style="fill:#F4971C;" d="M310.252,320.424c0,0,0-11.528-9.833-18.31c-9.833-6.781-10.85-13.224-10.85-13.224
		s-2.713,6.442,5.764,15.936C300.079,309.573,310.591,314.999,310.252,320.424z"/>
	<path style="fill:#F4971C;" d="M310.93,454.019c0,0,3.73-10.85-3.052-20.344c-7.121-9.494-5.764-15.936-5.764-15.936
		s-4.408,5.086,0.339,16.954C304.827,440.456,313.303,448.932,310.93,454.019z"/>
	<path style="fill:#F4971C;" d="M378.744,425.197c0,0-1.017-11.528-11.528-16.954c-10.511-5.764-11.868-11.868-11.868-11.868
		s-2.034,6.442,7.46,14.919C367.216,415.703,378.744,419.772,378.744,425.197z"/>
	<path style="fill:#F4971C;" d="M339.073,441.134c0,0,3.052-11.189-4.747-20.005c-7.799-8.816-7.121-15.597-7.121-15.597
		s-4.069,5.425,1.695,16.615C331.613,427.91,340.768,435.709,339.073,441.134z"/>
	<path style="fill:#F4971C;" d="M327.883,362.469c0,0,3.052-11.189-4.747-20.005c-7.799-8.816-7.121-15.597-7.121-15.597
		s-4.069,5.425,1.695,16.615C320.424,349.584,329.579,357.383,327.883,362.469z"/>
	<path style="fill:#F4971C;" d="M285.499,460.8c0,0,11.528-15.936,4.408-34.925c-7.121-18.988-2.034-28.821-2.034-28.821
		s-9.833,6.442-7.46,27.465C281.77,435.709,291.264,453.679,285.499,460.8z"/>
	<path style="fill:#F4971C;" d="M356.705,433.674c0,0,2.374-19.327-12.885-32.551c-15.258-13.224-15.597-24.413-15.597-24.413
		s-5.425,10.172,6.781,27.804C341.107,413.33,358.4,424.519,356.705,433.674z"/>
	<path style="fill:#F4971C;" d="M419.772,383.83c0,0-4.747-18.988-24.074-25.77c-18.988-6.781-23.396-16.954-23.396-16.954
		s-1.356,11.529,16.276,23.396C398.072,370.268,418.077,374.336,419.772,383.83z"/>
	<path style="fill:#F4971C;" d="M309.234,358.061c0,0,4.408-18.988-9.155-33.907c-13.902-14.919-12.885-25.77-12.885-25.77
		s-6.781,9.494,3.73,28.482C296.011,336.36,311.947,349.245,309.234,358.061z"/>
	<path style="fill:#F4971C;" d="M273.971,388.238c0,0,11.189-15.936,3.73-34.924c-7.46-18.988-2.374-28.821-2.374-28.821
		s-9.833,6.442-6.781,27.804C269.563,363.147,279.735,380.779,273.971,388.238z"/>
	<path style="fill:#F4971C;" d="M373.997,401.123c0,0-2.034-19.327-20.005-28.821c-17.971-9.494-20.683-20.005-20.683-20.005
		s-3.052,11.189,12.885,25.43C354.331,385.187,373.658,391.968,373.997,401.123z"/>
	<path style="fill:#F4971C;" d="M361.452,350.94c0,0-3.73-18.988-22.379-27.126c-18.649-7.799-22.379-18.31-22.379-18.31
		s-2.034,11.528,14.919,24.413C340.429,336.36,360.095,341.446,361.452,350.94z"/>
	<path style="fill:#F4971C;" d="M188.524,436.048c0,0-4.408-18.988,9.155-33.907c13.902-14.919,12.885-25.77,12.885-25.77
		s6.781,9.494-3.73,28.482C201.748,414.347,185.812,427.232,188.524,436.048z"/>
	<path style="fill:#F4971C;" d="M108.164,403.836c0,0,3.391-19.327,22.04-27.126c18.649-8.138,22.04-18.649,22.04-18.649
		s2.374,11.529-14.58,24.413C129.187,389.256,109.521,394.681,108.164,403.836z"/>
	<path style="fill:#F4971C;" d="M200.392,384.509c0,0-3.391-19.327,11.528-33.229c14.58-13.902,14.241-25.091,14.241-25.091
		s6.103,9.833-5.425,28.143C214.972,363.486,198.358,375.354,200.392,384.509z"/>
	<path style="fill:#F4971C;" d="M199.714,324.832c0,0,0-11.529,9.833-18.31c9.833-6.781,10.85-13.224,10.85-13.224
		s2.713,6.442-5.764,15.936C209.886,313.981,199.375,319.068,199.714,324.832z"/>
	<path style="fill:#F4971C;" d="M199.036,458.087c0,0-3.73-10.85,3.052-20.344c7.121-9.494,5.764-15.936,5.764-15.936
		s4.408,5.086-0.339,16.954C205.139,444.525,196.662,453.001,199.036,458.087z"/>
	<path style="fill:#F4971C;" d="M131.221,429.266c0,0,1.017-11.528,11.528-16.954c10.511-5.764,11.868-11.868,11.868-11.868
		s2.034,6.442-7.46,14.919C142.75,419.772,131.221,423.841,131.221,429.266z"/>
	<path style="fill:#F4971C;" d="M170.893,445.203c0,0-3.052-11.189,4.747-20.005s7.121-15.597,7.121-15.597
		s4.069,5.425-1.695,16.615C178.352,431.979,169.197,440.117,170.893,445.203z"/>
	<path style="fill:#F4971C;" d="M182.082,366.877c0,0-3.052-11.189,4.747-20.005c7.799-8.816,7.121-15.597,7.121-15.597
		s4.069,5.425-1.695,16.615C189.542,353.653,180.387,361.452,182.082,366.877z"/>
	<path style="fill:#F4971C;" d="M224.466,465.208c0,0-11.528-15.936-4.408-34.925c7.121-18.988,2.034-28.821,2.034-28.821
		s9.833,6.442,7.46,27.465C228.196,439.777,218.702,457.748,224.466,465.208z"/>
	<path style="fill:#F4971C;" d="M153.261,438.082c0,0-2.374-19.327,12.885-32.551c15.258-13.224,15.597-24.413,15.597-24.413
		s5.425,10.172-6.781,27.804C168.858,417.738,151.566,428.588,153.261,438.082z"/>
	<path style="fill:#F4971C;" d="M90.193,387.899c0,0,4.747-18.988,24.074-25.77c18.988-6.781,23.396-16.954,23.396-16.954
		s1.356,11.528-16.275,23.396C111.894,374.676,91.889,378.744,90.193,387.899z"/>
	<path style="fill:#F4971C;" d="M200.731,362.469c0,0-4.408-18.988,9.155-33.907c13.902-14.919,12.885-25.77,12.885-25.77
		s6.781,9.494-3.73,28.482C213.616,340.429,198.019,353.314,200.731,362.469z"/>
	<path style="fill:#F4971C;" d="M235.995,392.307c0,0-11.189-15.936-3.73-34.925c7.46-18.988,2.373-28.821,2.373-28.821
		s9.833,6.442,6.781,27.804C240.403,367.216,230.23,384.848,235.995,392.307z"/>
	<path style="fill:#F4971C;" d="M135.968,405.531c0,0,2.034-19.327,20.005-28.821s20.683-20.005,20.683-20.005
		s3.052,11.189-12.885,25.43C155.634,389.256,136.307,396.037,135.968,405.531z"/>
	<path style="fill:#F4971C;" d="M148.514,355.009c0,0,3.73-18.988,22.379-27.126c18.649-7.799,22.379-18.31,22.379-18.31
		s2.034,11.529-14.919,24.413C169.536,340.429,149.87,345.854,148.514,355.009z"/>
	<path style="fill:#F4971C;" d="M321.441,75.613c0,0,4.408,18.988-9.155,33.907c-13.902,14.919-12.885,25.77-12.885,25.77
		s-6.781-9.494,3.73-28.482C308.217,97.314,324.154,84.429,321.441,75.613z"/>
	<path style="fill:#F4971C;" d="M401.801,107.825c0,0-3.391,19.327-22.04,27.126c-18.649,8.138-22.04,18.649-22.04,18.649
		s-2.374-11.528,14.58-24.413C380.779,122.405,400.445,116.98,401.801,107.825z"/>
	<path style="fill:#F4971C;" d="M309.573,127.152c0,0,3.391,19.327-11.528,33.229c-14.58,13.902-14.241,25.091-14.241,25.091
		s-6.103-9.833,5.425-28.143C294.993,148.175,311.608,136.307,309.573,127.152z"/>
	<path style="fill:#F4971C;" d="M310.252,186.829c0,0,0,11.528-9.833,18.31c-9.833,6.781-10.85,13.224-10.85,13.224
		s-2.713-6.442,5.764-15.936C300.079,197.679,310.591,192.254,310.252,186.829z"/>
	<path style="fill:#F4971C;" d="M310.93,53.574c0,0,3.73,10.85-3.052,20.344c-7.121,9.494-5.764,15.936-5.764,15.936
		s-4.408-5.086,0.339-16.954C304.827,67.136,313.303,58.66,310.93,53.574z"/>
	<path style="fill:#F4971C;" d="M378.744,82.056c0,0-1.017,11.528-11.528,16.954c-10.511,5.764-11.868,11.868-11.868,11.868
		s-2.034-6.442,7.46-14.919C367.216,91.889,378.744,87.82,378.744,82.056z"/>
	<path style="fill:#F4971C;" d="M339.073,66.458c0,0,3.052,11.189-4.747,20.005c-7.799,8.816-7.121,15.597-7.121,15.597
		s-4.069-5.425,1.695-16.615C331.613,79.682,340.768,71.544,339.073,66.458z"/>
	<path style="fill:#F4971C;" d="M327.883,144.784c0,0,3.052,11.189-4.747,20.005c-7.799,8.816-7.121,15.597-7.121,15.597
		s-4.408-5.425,1.356-16.615C320.424,158.008,329.579,150.209,327.883,144.784z"/>
	<path style="fill:#F4971C;" d="M285.499,46.453c0,0,11.528,15.936,4.408,34.925s-2.034,28.821-2.034,28.821
		s-9.833-6.442-7.46-27.465C281.77,71.883,291.264,53.913,285.499,46.453z"/>
	<path style="fill:#F4971C;" d="M356.705,73.579c0,0,2.374,19.327-12.885,32.551c-15.258,13.224-15.597,24.413-15.597,24.413
		s-5.425-10.172,6.781-27.804C341.107,93.923,358.4,82.734,356.705,73.579z"/>
	<path style="fill:#F4971C;" d="M419.772,123.762c0,0-4.747,18.988-24.074,25.77c-18.988,6.781-23.396,16.954-23.396,16.954
		s-1.356-11.528,16.276-23.396C398.072,136.985,418.077,132.917,419.772,123.762z"/>
	<path style="fill:#F4971C;" d="M309.234,149.192c0,0,4.408,18.988-9.155,33.907c-13.902,14.919-12.885,25.77-12.885,25.77
		s-6.781-9.494,3.73-28.482C296.011,171.232,311.947,158.347,309.234,149.192z"/>
	<path style="fill:#F4971C;" d="M273.971,119.354c0,0,11.189,15.936,3.73,34.925s-2.374,28.821-2.374,28.821
		s-9.833-6.442-6.781-27.804C269.563,144.445,279.735,126.474,273.971,119.354z"/>
	<path style="fill:#F4971C;" d="M373.997,106.13c0,0-2.034,19.327-20.005,28.821c-17.971,9.494-20.683,20.005-20.683,20.005
		s-3.052-11.189,12.885-25.43C354.331,122.405,373.658,115.624,373.997,106.13z"/>
	<path style="fill:#F4971C;" d="M361.452,156.652c0,0-3.73,18.988-22.379,27.126c-18.649,7.799-22.379,18.31-22.379,18.31
		s-2.034-11.528,14.919-24.413C340.429,170.893,360.095,165.807,361.452,156.652z"/>
	<path style="fill:#F4971C;" d="M66.119,290.924c0,0,13.902-13.563,33.907-9.494c19.666,4.069,28.821-2.374,28.821-2.374
		s-4.747,10.511-26.109,11.189C91.55,291.264,72.562,284.143,66.119,290.924z"/>
	<path style="fill:#F4971C;" d="M52.556,205.478c0,0,18.31-6.781,34.585,5.086c16.275,11.868,27.126,9.494,27.126,9.494
		s-8.816,7.799-28.482,0C75.952,215.989,61.372,201.748,52.556,205.478z"/>
	<path style="fill:#F4971C;" d="M116.641,274.649c0,0,14.919-12.546,34.246-7.121c19.327,5.425,28.821-0.339,28.821-0.339
		s-5.425,10.172-26.787,9.494C142.072,276.344,123.423,268.207,116.641,274.649z"/>
	<path style="fill:#F4971C;" d="M167.502,243.454c0,0,9.833-5.764,20.683-1.017c10.85,5.086,16.954,2.374,16.954,2.374
		s-4.069,5.425-16.615,3.052C182.082,246.845,171.91,240.403,167.502,243.454z"/>
	<path style="fill:#F4971C;" d="M52.556,311.269c0,0,7.46-8.816,18.988-7.799c11.868,1.017,16.615-3.391,16.615-3.391
		s-2.034,6.442-14.58,8.477C67.475,309.573,55.608,306.861,52.556,311.269z"/>
	<path style="fill:#F4971C;" d="M42.384,238.368c0,0,10.511-4.747,20.683,1.356c10.172,6.103,16.275,4.069,16.275,4.069
		s-4.747,5.086-16.615,1.356C56.625,243.115,47.131,235.656,42.384,238.368z"/>
	<path style="fill:#F4971C;" d="M49.166,280.413c0,0,8.138-8.138,19.666-6.103c11.868,2.034,16.954-1.695,16.954-1.695
		s-2.713,6.442-15.258,7.121C64.085,280.074,52.895,276.344,49.166,280.413z"/>
	<path style="fill:#F4971C;" d="M122.405,250.236c0,0,8.138-8.138,19.666-6.103c11.868,2.034,16.954-1.695,16.954-1.695
		s-2.713,6.442-15.258,7.121C137.325,249.558,126.135,245.828,122.405,250.236z"/>
	<path style="fill:#F4971C;" d="M59.677,336.699c0,0,7.799-17.971,27.804-21.701s25.77-13.224,25.77-13.224
		s-0.339,11.528-20.005,20.683C83.412,327.205,62.728,327.883,59.677,336.699z"/>
	<path style="fill:#F4971C;" d="M46.453,261.764c0,0,15.597-11.868,34.585-5.764c19.327,6.442,28.821,0.678,28.821,0.678
		s-5.764,10.172-27.126,8.477C71.883,264.477,53.574,255.661,46.453,261.764z"/>
	<path style="fill:#F4971C;" d="M57.303,181.743c0,0,18.649-5.425,34.246,7.46s26.448,11.189,26.448,11.189
		s-9.155,7.121-28.482-2.034C79.682,193.611,66.119,178.691,57.303,181.743z"/>
	<path style="fill:#F4971C;" d="M135.629,263.46c0,0,13.902-13.563,33.907-9.494c19.666,4.069,28.821-2.374,28.821-2.374
		s-4.747,10.511-26.109,11.189C161.06,263.799,142.072,256.678,135.629,263.46z"/>
	<path style="fill:#F4971C;" d="M127.83,309.573c0,0,8.138-17.632,28.143-21.022c20.005-3.391,25.77-12.546,25.77-12.546
		s-0.678,11.528-20.344,20.005C151.905,300.079,131.221,300.758,127.83,309.573z"/>
	<path style="fill:#F4971C;" d="M65.441,229.891c0,0,17.632-8.138,34.924,2.713c17.293,10.511,27.804,7.46,27.804,7.46
		s-8.138,8.477-28.482,2.034C89.515,238.707,73.918,225.483,65.441,229.891z"/>
	<path style="fill:#F4971C;" d="M115.285,215.311c0,0,18.31-6.442,34.585,5.425s27.126,9.833,27.126,9.833
		s-8.816,7.799-28.482-0.678C138.342,225.823,123.762,211.581,115.285,215.311z"/>
	<path style="fill:#F4971C;" d="M443.846,220.397c0,0-13.902,13.563-33.907,9.494c-19.666-4.069-28.821,2.374-28.821,2.374
		s4.747-10.511,26.109-11.189C418.416,220.397,437.404,227.518,443.846,220.397z"/>
	<path style="fill:#F4971C;" d="M457.409,306.183c0,0-18.31,6.781-34.585-5.086s-27.126-9.494-27.126-9.494s8.816-7.799,28.482,0
		C434.013,295.672,448.593,309.913,457.409,306.183z"/>
	<path style="fill:#F4971C;" d="M393.324,237.012c0,0-14.919,12.546-34.246,7.121c-19.327-5.425-28.821,0.339-28.821,0.339
		s5.425-10.172,26.787-9.494C367.894,235.317,386.543,243.454,393.324,237.012z"/>
	<path style="fill:#F4971C;" d="M342.464,268.207c0,0-9.833,5.764-20.683,1.017c-10.85-5.086-16.954-2.374-16.954-2.374
		s4.069-5.425,16.615-3.052C327.883,264.816,338.056,271.258,342.464,268.207z"/>
	<path style="fill:#F4971C;" d="M457.409,200.392c0,0-7.46,8.816-18.988,7.799c-11.868-1.017-16.615,3.391-16.615,3.391
		s2.034-6.442,14.58-8.477C442.49,202.087,454.358,204.8,457.409,200.392z"/>
	<path style="fill:#F4971C;" d="M467.581,273.293c0,0-10.511,4.747-20.683-1.356c-10.172-6.103-16.276-4.069-16.276-4.069
		s4.747-5.086,16.615-1.356C453.34,268.546,462.834,276.005,467.581,273.293z"/>
	<path style="fill:#F4971C;" d="M460.8,231.248c0,0-8.138,8.138-19.666,6.103c-11.868-2.034-16.954,1.695-16.954,1.695
		s2.713-6.442,15.258-7.121C445.881,231.587,457.07,235.317,460.8,231.248z"/>
	<path style="fill:#F4971C;" d="M387.56,261.425c0,0-8.138,8.138-19.666,6.103c-11.868-2.034-16.954,1.695-16.954,1.695
		s2.713-6.442,15.258-7.121C372.641,261.764,383.83,265.833,387.56,261.425z"/>
	<path style="fill:#F4971C;" d="M450.289,174.962c0,0-7.799,17.971-27.804,21.701c-20.005,3.73-25.77,13.224-25.77,13.224
		s0.339-11.528,20.005-20.683C426.554,184.456,447.237,183.777,450.289,174.962z"/>
	<path style="fill:#F4971C;" d="M463.513,249.897c0,0-15.597,11.868-34.585,5.764c-19.327-6.442-28.821-0.678-28.821-0.678
		s5.764-10.172,27.126-8.477C438.082,247.184,456.392,256,463.513,249.897z"/>
	<path style="fill:#F4971C;" d="M452.662,329.918c0,0-18.649,5.425-34.246-7.46c-15.597-12.885-26.448-11.189-26.448-11.189
		s9.155-7.121,28.482,2.034C430.283,318.05,443.846,332.97,452.662,329.918z"/>
	<path style="fill:#F4971C;" d="M374.336,247.862c0,0-13.902,13.563-33.907,9.494c-19.666-4.069-28.821,2.374-28.821,2.374
		s4.747-10.511,26.109-11.189C348.567,247.862,367.894,254.983,374.336,247.862z"/>
	<path style="fill:#F4971C;" d="M382.135,202.087c0,0-8.138,17.632-28.143,21.023c-20.005,3.391-25.77,12.546-25.77,12.546
		s0.678-11.528,20.344-20.005C358.061,211.242,378.744,210.903,382.135,202.087z"/>
	<path style="fill:#F4971C;" d="M444.525,281.77c0,0-17.632,8.138-34.925-2.713c-17.293-10.511-27.804-7.46-27.804-7.46
		s8.138-8.477,28.482-2.034C420.45,272.954,436.048,286.177,444.525,281.77z"/>
	<path style="fill:#F4971C;" d="M394.681,296.35c0,0-18.31,6.442-34.585-5.425c-16.275-11.868-27.126-9.833-27.126-9.833
		s8.816-7.799,28.482,0.678C371.624,285.838,386.204,300.079,394.681,296.35z"/>
	<path style="fill:#F4971C;" d="M188.524,79.682c0,0-4.408,18.988,9.155,33.907c13.902,14.919,12.885,25.77,12.885,25.77
		s6.781-9.494-3.73-28.482C201.748,101.383,185.812,88.498,188.524,79.682z"/>
	<path style="fill:#F4971C;" d="M108.164,111.894c0,0,3.391,19.327,22.04,27.126c18.649,8.138,22.04,18.649,22.04,18.649
		s2.374-11.528-14.58-24.413C129.187,126.813,109.521,121.049,108.164,111.894z"/>
	<path style="fill:#F4971C;" d="M200.392,131.221c0,0-3.391,19.327,11.528,33.229c14.58,13.902,14.241,25.091,14.241,25.091
		s6.103-9.833-5.425-28.143C214.972,152.244,198.358,140.376,200.392,131.221z"/>
	<path style="fill:#F4971C;" d="M199.714,190.898c0,0,0,11.528,9.833,18.31c9.833,6.781,10.85,13.224,10.85,13.224
		s2.713-6.442-5.764-15.936C209.886,202.087,199.375,196.662,199.714,190.898z"/>
	<path style="fill:#F4971C;" d="M199.036,57.642c0,0-3.73,10.85,3.052,20.344c7.121,9.494,5.764,15.936,5.764,15.936
		s4.408-5.086-0.339-16.954C205.139,71.205,196.662,62.728,199.036,57.642z"/>
	<path style="fill:#F4971C;" d="M131.221,86.464c0,0,1.017,11.528,11.528,16.954c10.511,5.764,11.868,11.868,11.868,11.868
		s2.034-6.442-7.46-14.919C142.75,95.958,131.221,91.889,131.221,86.464z"/>
	<path style="fill:#F4971C;" d="M170.893,70.527c0,0-3.052,11.189,4.747,20.005s7.121,15.597,7.121,15.597s4.069-5.425-1.695-16.615
		C178.352,83.751,169.197,75.952,170.893,70.527z"/>
	<path style="fill:#F4971C;" d="M182.082,148.853c0,0-3.052,11.189,4.747,20.005c7.799,8.816,7.121,15.597,7.121,15.597
		s4.069-5.425-1.695-16.615C189.542,162.077,180.387,154.278,182.082,148.853z"/>
	<path style="fill:#F4971C;" d="M224.466,50.522c0,0-11.528,15.936-4.408,34.924s2.034,28.821,2.034,28.821s9.833-6.442,7.46-27.465
		C228.196,75.952,218.702,57.981,224.466,50.522z"/>
	<path style="fill:#F4971C;" d="M153.261,77.648c0,0-2.374,19.327,12.885,32.551c15.258,13.224,15.597,24.413,15.597,24.413
		s5.425-10.172-6.781-27.804C168.858,97.992,151.566,87.142,153.261,77.648z"/>
	<path style="fill:#F4971C;" d="M90.193,127.83c0,0,4.747,18.988,24.074,25.77c18.988,6.781,23.396,16.954,23.396,16.954
		s1.356-11.528-16.275-23.396C111.894,141.393,91.889,137.325,90.193,127.83z"/>
	<path style="fill:#F4971C;" d="M200.731,153.6c0,0-4.408,18.988,9.155,33.907c13.563,14.919,12.885,25.77,12.885,25.77
		s6.781-9.494-3.73-28.482C213.616,175.301,198.019,162.416,200.731,153.6z"/>
	<path style="fill:#F4971C;" d="M235.995,123.423c0,0-11.189,15.936-3.73,34.925c7.46,18.988,2.373,28.821,2.373,28.821
		s9.833-6.442,6.781-27.804C240.403,148.514,230.23,130.882,235.995,123.423z"/>
	<path style="fill:#F4971C;" d="M135.968,110.199c0,0,2.034,19.327,20.005,28.821s20.683,20.005,20.683,20.005
		s3.052-11.189-12.885-25.43C155.634,126.474,136.307,119.693,135.968,110.199z"/>
	<path style="fill:#F4971C;" d="M148.514,160.721c0,0,3.73,18.988,22.379,27.126c18.649,7.799,22.379,18.31,22.379,18.31
		s2.034-11.868-14.919-24.413C169.536,175.301,149.87,169.875,148.514,160.721z"/>
</g>
</svg>
