<?xml version="1.0" encoding="UTF-8"?>
<svg xmlns="http://www.w3.org/2000/svg" xmlns:xlink="http://www.w3.org/1999/xlink" viewBox="0 0 48 48" version="1.1" width="96px" height="96px">
<g id="surface1">
<path style=" fill:#37474F;" d="M 16.457031 2.988281 C 16.246094 2.992188 16.015625 3.074219 15.757813 3.277344 C 15.121094 3.03125 14.507813 2.945313 13.953125 3.445313 C 13.101563 3.335938 12.828125 3.5625 12.617188 3.828125 C 12.429688 3.824219 11.222656 3.636719 10.664063 4.464844 C 9.269531 4.300781 8.828125 5.285156 9.328125 6.203125 C 9.042969 6.644531 8.75 7.082031 9.414063 7.925781 C 9.179688 8.394531 9.324219 8.898438 9.878906 9.515625 C 9.734375 10.175781 10.023438 10.640625 10.539063 11.003906 C 10.441406 11.902344 11.363281 12.425781 11.640625 12.613281 C 11.746094 13.136719 11.96875 13.632813 13.019531 13.90625 C 13.195313 14.691406 13.828125 14.824219 14.441406 14.988281 C 12.414063 16.167969 10.675781 17.71875 10.6875 21.523438 L 10.390625 22.054688 C 8.0625 23.46875 5.972656 28.015625 9.242188 31.710938 C 9.457031 32.863281 9.816406 33.695313 10.136719 34.613281 C 10.613281 38.320313 13.726563 40.054688 14.550781 40.261719 C 15.753906 41.175781 17.035156 42.046875 18.769531 42.65625 C 20.40625 44.34375 22.179688 44.988281 23.960938 44.984375 C 23.988281 44.984375 24.015625 44.984375 24.039063 44.984375 C 25.820313 44.988281 27.59375 44.34375 29.230469 42.65625 C 30.964844 42.046875 32.246094 41.175781 33.453125 40.261719 C 34.273438 40.054688 37.390625 38.320313 37.863281 34.613281 C 38.183594 33.695313 38.542969 32.863281 38.757813 31.710938 C 42.027344 28.015625 39.9375 23.46875 37.609375 22.054688 L 37.3125 21.523438 C 37.324219 17.71875 35.585938 16.167969 33.558594 14.988281 C 34.171875 14.824219 34.804688 14.691406 34.980469 13.90625 C 36.035156 13.632813 36.253906 13.136719 36.359375 12.609375 C 36.636719 12.425781 37.558594 11.902344 37.464844 11 C 37.980469 10.640625 38.269531 10.175781 38.121094 9.515625 C 38.675781 8.902344 38.820313 8.390625 38.585938 7.925781 C 39.253906 7.082031 38.957031 6.648438 38.671875 6.203125 C 39.171875 5.285156 38.730469 4.300781 37.335938 4.464844 C 36.78125 3.636719 35.570313 3.824219 35.382813 3.828125 C 35.175781 3.5625 34.898438 3.335938 34.046875 3.445313 C 33.496094 2.945313 32.878906 3.03125 32.242188 3.277344 C 31.488281 2.679688 30.988281 3.15625 30.417969 3.339844 C 29.507813 3.039063 29.296875 3.449219 28.847656 3.617188 C 27.851563 3.40625 27.550781 3.863281 27.070313 4.347656 L 26.515625 4.335938 C 25.011719 5.222656 24.265625 7.027344 24 7.953125 C 23.738281 7.023438 22.992188 5.222656 21.488281 4.335938 L 20.933594 4.347656 C 20.453125 3.863281 20.152344 3.40625 19.15625 3.617188 C 18.707031 3.449219 18.496094 3.039063 17.585938 3.339844 C 17.207031 3.21875 16.863281 2.976563 16.457031 2.988281 Z "/>
<path style=" fill:#64DD17;" d="M 13.464844 6.886719 C 17.453125 8.941406 19.769531 10.601563 21.039063 12.019531 C 20.390625 14.625 17 14.746094 15.757813 14.671875 C 16.011719 14.554688 16.226563 14.410156 16.300781 14.191406 C 15.988281 13.972656 14.882813 14.171875 14.113281 13.738281 C 14.410156 13.675781 14.546875 13.617188 14.6875 13.398438 C 13.960938 13.164063 13.175781 12.964844 12.714844 12.582031 C 12.960938 12.585938 13.195313 12.636719 13.519531 12.410156 C 12.867188 12.058594 12.171875 11.78125 11.632813 11.246094 C 11.96875 11.234375 12.332031 11.242188 12.4375 11.117188 C 11.839844 10.746094 11.335938 10.335938 10.917969 9.886719 C 11.390625 9.945313 11.589844 9.894531 11.703125 9.8125 C 11.253906 9.351563 10.683594 8.960938 10.410156 8.390625 C 10.761719 8.511719 11.082031 8.558594 11.3125 8.378906 C 11.160156 8.035156 10.503906 7.828125 10.125 7.023438 C 10.492188 7.058594 10.886719 7.101563 10.964844 7.023438 C 10.789063 6.324219 10.496094 5.933594 10.210938 5.527344 C 11 5.515625 12.195313 5.53125 12.140625 5.464844 L 11.652344 4.964844 C 12.425781 4.757813 13.214844 4.996094 13.785156 5.175781 C 14.042969 4.972656 13.78125 4.71875 13.46875 4.457031 C 14.121094 4.542969 14.714844 4.695313 15.25 4.902344 C 15.535156 4.644531 15.0625 4.386719 14.835938 4.128906 C 15.847656 4.320313 16.277344 4.589844 16.703125 4.859375 C 17.011719 4.5625 16.722656 4.308594 16.511719 4.050781 C 17.277344 4.335938 17.667969 4.699219 18.082031 5.058594 C 18.222656 4.871094 18.441406 4.730469 18.179688 4.277344 C 18.722656 4.589844 19.128906 4.957031 19.429688 5.367188 C 19.765625 5.152344 19.632813 4.863281 19.632813 4.59375 C 20.195313 5.050781 20.554688 5.539063 20.988281 6.015625 C 21.078125 5.953125 21.15625 5.734375 21.222656 5.390625 C 22.566406 6.691406 24.464844 9.976563 21.710938 11.277344 C 19.367188 9.34375 16.566406 7.9375 13.464844 6.886719 Z "/>
<path style=" fill:#64DD17;" d="M 34.621094 6.886719 C 30.636719 8.941406 28.316406 10.601563 27.050781 12.019531 C 27.699219 14.625 31.09375 14.746094 32.332031 14.671875 C 32.078125 14.554688 31.867188 14.410156 31.789063 14.191406 C 32.101563 13.972656 33.203125 14.171875 33.976563 13.738281 C 33.679688 13.675781 33.542969 13.617188 33.402344 13.398438 C 34.132813 13.164063 34.917969 12.964844 35.378906 12.582031 C 35.128906 12.585938 34.894531 12.636719 34.570313 12.410156 C 35.222656 12.058594 35.917969 11.78125 36.460938 11.246094 C 36.121094 11.234375 35.757813 11.242188 35.652344 11.117188 C 36.25 10.746094 36.753906 10.335938 37.171875 9.886719 C 36.699219 9.945313 36.5 9.894531 36.386719 9.8125 C 36.835938 9.351563 37.40625 8.960938 37.679688 8.390625 C 37.328125 8.511719 37.007813 8.558594 36.777344 8.378906 C 36.929688 8.035156 37.589844 7.828125 37.96875 7.023438 C 37.597656 7.058594 37.207031 7.101563 37.128906 7.023438 C 37.300781 6.324219 37.59375 5.933594 37.882813 5.527344 C 37.09375 5.515625 35.898438 5.53125 35.949219 5.464844 L 36.4375 4.964844 C 35.667969 4.757813 34.878906 4.996094 34.304688 5.175781 C 34.046875 4.972656 34.3125 4.71875 34.625 4.457031 C 33.96875 4.542969 33.375 4.691406 32.84375 4.902344 C 32.554688 4.644531 33.027344 4.386719 33.257813 4.128906 C 32.242188 4.316406 31.816406 4.589844 31.390625 4.859375 C 31.078125 4.5625 31.371094 4.308594 31.578125 4.050781 C 30.816406 4.335938 30.421875 4.699219 30.007813 5.058594 C 29.867188 4.871094 29.652344 4.730469 29.914063 4.277344 C 29.371094 4.585938 28.964844 4.957031 28.660156 5.367188 C 28.328125 5.152344 28.460938 4.863281 28.460938 4.59375 C 27.898438 5.050781 27.539063 5.539063 27.101563 6.015625 C 27.015625 5.953125 26.9375 5.734375 26.871094 5.390625 C 25.523438 6.691406 23.628906 9.976563 26.382813 11.277344 C 28.722656 9.34375 31.519531 7.9375 34.621094 6.886719 Z "/>
<path style=" fill:#FF4081;" d="M 28.871094 33.425781 C 28.886719 35.859375 26.761719 37.839844 24.121094 37.855469 C 21.484375 37.867188 19.335938 35.90625 19.320313 33.472656 C 19.320313 33.457031 19.320313 33.441406 19.320313 33.425781 C 19.308594 30.992188 21.433594 29.011719 24.070313 28.996094 C 26.710938 28.984375 28.859375 30.945313 28.871094 33.378906 C 28.871094 33.394531 28.871094 33.410156 28.871094 33.425781 Z "/>
<path style=" fill:#FF4081;" d="M 21.332031 20.847656 C 23.3125 22.140625 23.667969 25.078125 22.128906 27.410156 C 20.589844 29.738281 17.738281 30.574219 15.761719 29.277344 C 13.78125 27.980469 13.425781 25.042969 14.964844 22.714844 C 16.503906 20.386719 19.355469 19.550781 21.332031 20.847656 Z "/>
<path style=" fill:#FF4081;" d="M 26.675781 20.609375 C 24.695313 21.90625 24.339844 24.84375 25.878906 27.171875 C 27.417969 29.503906 30.269531 30.339844 32.246094 29.042969 C 34.226563 27.746094 34.585938 24.808594 33.046875 22.476563 C 31.507813 20.148438 28.652344 19.3125 26.675781 20.609375 Z "/>
<path style=" fill:#FF4081;" d="M 11.441406 22.964844 C 13.578125 22.394531 12.164063 31.804688 10.425781 31.03125 C 8.515625 29.492188 7.898438 24.988281 11.441406 22.964844 Z "/>
<path style=" fill:#FF4081;" d="M 36.136719 22.847656 C 33.996094 22.277344 35.414063 31.6875 37.152344 30.914063 C 39.0625 29.375 39.679688 24.871094 36.136719 22.847656 Z "/>
<path style=" fill:#FF4081;" d="M 28.875 15.839844 C 32.5625 15.214844 35.632813 17.40625 35.507813 21.402344 C 35.386719 22.9375 27.515625 16.066406 28.875 15.839844 Z "/>
<path style=" fill:#FF4081;" d="M 18.6875 15.71875 C 15 15.097656 11.933594 17.289063 12.054688 21.285156 C 12.175781 22.820313 20.046875 15.949219 18.6875 15.71875 Z "/>
<path style=" fill:#FF4081;" d="M 23.984375 14.789063 C 21.78125 14.730469 19.671875 16.421875 19.664063 17.402344 C 19.660156 18.59375 21.40625 19.8125 23.996094 19.84375 C 26.644531 19.863281 28.335938 18.867188 28.34375 17.640625 C 28.355469 16.246094 25.9375 14.765625 23.984375 14.789063 Z "/>
<path style=" fill:#FF4081;" d="M 24.117188 39.222656 C 26.035156 39.136719 28.609375 39.839844 28.617188 40.769531 C 28.648438 41.675781 26.28125 43.71875 23.992188 43.675781 C 21.617188 43.78125 19.292969 41.734375 19.324219 41.027344 C 19.285156 39.984375 22.210938 39.175781 24.117188 39.222656 Z "/>
<path style=" fill:#FF4081;" d="M 17.03125 33.703125 C 18.398438 35.347656 19.019531 38.242188 17.878906 39.09375 C 16.800781 39.746094 14.183594 39.476563 12.320313 36.804688 C 11.066406 34.558594 11.226563 32.277344 12.109375 31.605469 C 13.425781 30.800781 15.464844 31.882813 17.03125 33.703125 Z "/>
<path style=" fill:#FF4081;" d="M 30.933594 33.183594 C 29.453125 34.914063 28.632813 38.070313 29.710938 39.089844 C 30.738281 39.878906 33.507813 39.769531 35.550781 36.933594 C 37.035156 35.027344 36.539063 31.84375 35.691406 30.996094 C 34.429688 30.027344 32.621094 31.269531 30.933594 33.183594 Z "/>
</g>
</svg>
