<?xml version="1.0" encoding="iso-8859-1"?>
<!-- Generator: Adobe Illustrator 16.0.0, SVG Export Plug-In . SVG Version: 6.00 Build 0)  -->
<!DOCTYPE svg PUBLIC "-//W3C//DTD SVG 1.1//EN" "http://www.w3.org/Graphics/SVG/1.1/DTD/svg11.dtd">
<svg version="1.1" id="Capa_1" xmlns="http://www.w3.org/2000/svg" xmlns:xlink="http://www.w3.org/1999/xlink" x="0px" y="0px"
	 width="524.931px" height="524.93px" viewBox="0 0 524.931 524.93" style="enable-background:new 0 0 524.931 524.93;"
	 xml:space="preserve">
<g>
	<g>
		<path d="M226.434,249.503c0-6.995-2.705-13.403-7.846-18.556L61.8,74.165c-5.128-5.141-11.554-7.852-18.568-7.852
			c-7.026,0-13.452,2.717-18.556,7.846l-16.83,16.83c-5.129,5.135-7.84,11.549-7.84,18.538c0,7.026,2.717,13.452,7.846,18.556
			l121.415,121.42L7.84,370.936C2.711,376.071,0,382.491,0,389.486c0,7.02,2.717,13.439,7.846,18.544l16.775,16.774
			c5.116,5.165,11.555,7.895,18.611,7.895c7.044,0,13.47-2.723,18.556-7.846l156.813-156.8
			C223.729,262.913,226.434,256.504,226.434,249.503z"/>
		<path d="M498.866,384.951h-323.02c-7.203,0-13.611,2.583-18.581,7.528c-4.896,4.92-7.484,11.327-7.484,18.531v21.536
			c0,7.252,2.607,13.672,7.491,18.543c4.915,4.927,11.34,7.528,18.574,7.528h323.02c7.239,0,13.659-2.607,18.531-7.497
			c4.927-4.908,7.533-11.334,7.533-18.58v-21.537c0-7.209-2.589-13.616-7.54-18.592
			C512.477,387.534,506.069,384.951,498.866,384.951z"/>
	</g>
</g>
<g>
</g>
<g>
</g>
<g>
</g>
<g>
</g>
<g>
</g>
<g>
</g>
<g>
</g>
<g>
</g>
<g>
</g>
<g>
</g>
<g>
</g>
<g>
</g>
<g>
</g>
<g>
</g>
<g>
</g>
</svg>
